<?xml version="1.0" encoding="utf-8"?>
<!-- Generator: Adobe Illustrator 25.4.1, SVG Export Plug-In . SVG Version: 6.00 Build 0)  -->
<svg version="1.1" id="Layer_1" xmlns="http://www.w3.org/2000/svg" xmlns:xlink="http://www.w3.org/1999/xlink" x="0px" y="0px"
	 viewBox="0 0 24 24" style="enable-background:new 0 0 24 24;" xml:space="preserve">
<style type="text/css">
	.st0{fill:#FFFFFF;}
</style>
<path class="st0" d="M22,7h-7V5h7V7z M23.73,17c-0.44,1.3-2.03,3-5.1,3s-5.56-1.73-5.56-5.68c0-3.91,2.32-5.92,5.47-5.92
	c3.08,0,4.96,1.78,5.38,4.43c0.08,0.51,0.11,1.19,0.09,2.14h-8.03c0.13,3.21,3.48,3.31,4.59,2.03C20.56,17,23.73,17,23.73,17z
	 M16.04,13h4.97c-0.1-1.55-1.14-2.22-2.48-2.22C17.06,10.78,16.25,11.55,16.04,13z M6.47,19.99H0V5.02h6.95
	c5.48,0.08,5.58,5.44,2.72,6.91C13.13,13.19,13.25,19.99,6.47,19.99z M3,11h3.58c2.51,0,2.91-3-0.31-3H3V11z M6.39,14H3v3.02h3.34
	C9.4,17.02,9.21,14,6.39,14z"/>
</svg>
