<?xml version="1.0" encoding="utf-8"?>
<!-- Generator: Adobe Illustrator 25.4.1, SVG Export Plug-In . SVG Version: 6.00 Build 0)  -->
<svg version="1.1" id="Layer_1" xmlns="http://www.w3.org/2000/svg" xmlns:xlink="http://www.w3.org/1999/xlink" x="0px" y="0px"
	 viewBox="0 0 32 32" style="enable-background:new 0 0 32 32;" xml:space="preserve">
<style type="text/css">
	.st0{fill:#FFFFFF;}
</style>
<path class="st0" d="M9.55,2C5.39,2,2,5.39,2,9.55v10.91C2,24.61,5.39,28,9.55,28h10.91c4.15,0,7.54-3.39,7.54-7.55V9.55
	C28,5.39,24.61,2,20.45,2H9.55z M9.55,4h10.91C23.53,4,26,6.47,26,9.55v10.91c0,3.08-2.47,5.55-5.54,5.55H9.55
	C6.47,26,4,23.53,4,20.46V9.55C4,6.47,6.47,4,9.55,4z M23,6c-0.55,0-1,0.45-1,1s0.45,1,1,1s1-0.45,1-1S23.55,6,23,6z M15,8
	c-3.85,0-7,3.15-7,7s3.15,7,7,7s7-3.15,7-7S18.85,8,15,8z M15,10c2.77,0,5,2.23,5,5s-2.23,5-5,5s-5-2.23-5-5S12.23,10,15,10z"/>
</svg>
