<?xml version="1.0" encoding="utf-8"?>
<!-- Generator: Adobe Illustrator 25.4.1, SVG Export Plug-In . SVG Version: 6.00 Build 0)  -->
<svg version="1.1" id="Layer_1" xmlns="http://www.w3.org/2000/svg" xmlns:xlink="http://www.w3.org/1999/xlink" x="0px" y="0px"
	 viewBox="0 0 32 32" style="enable-background:new 0 0 32 32;" xml:space="preserve">
<style type="text/css">
	.st0{fill:#E95262;}
</style>
<path class="st0" d="M5.52,2C3.59,2,2,3.59,2,5.52V24.5C2,26.41,3.59,28,5.52,28H24.5c1.92,0,3.51-1.59,3.51-3.51V5.52
	C28,3.59,26.41,2,24.49,2H5.52z M5.52,4H24.5C25.34,4,26,4.66,26,5.52V24.5c0,0.84-0.66,1.51-1.51,1.51H5.52
	C4.66,26,4,25.34,4,24.49V5.52C4,4.66,4.66,4,5.52,4z M8,6C6.9,6,6,6.9,6,8s0.9,2,2,2s2-0.9,2-2S9.1,6,8,6z M6,12v12h4V12H6z M12,12
	v12h4v-5.36c0-1.66,0.16-3.16,2.16-3.16c1.97,0,1.84,1.79,1.84,3.27V24h4v-5.92c0-3.44-0.72-6.08-4.62-6.08
	c-1.88,0-2.82,0.75-3.34,1.75H16V12H12z"/>
</svg>
