<?xml version="1.0" encoding="utf-8"?>
<!-- Generator: Adobe Illustrator 25.4.1, SVG Export Plug-In . SVG Version: 6.00 Build 0)  -->
<svg version="1.1" id="Layer_1" xmlns="http://www.w3.org/2000/svg" xmlns:xlink="http://www.w3.org/1999/xlink" x="0px" y="0px"
	 viewBox="0 0 32 32" style="enable-background:new 0 0 32 32;" xml:space="preserve">
<style type="text/css">
	.st0{fill:#FFFFFF;}
</style>
<path class="st0" d="M15,2C7.83,2,2,7.83,2,15s5.83,13,13,13s13-5.83,13-13S22.17,2,15,2z M15,4c6.09,0,11,4.91,11,11
	c0,5.53-4.06,10.08-9.38,10.87v-7.69h3.11l0.49-3.15h-3.59V13.3c0-1.31,0.43-2.47,1.65-2.47h1.97V8.07
	c-0.35-0.05-1.08-0.15-2.46-0.15c-2.89,0-4.58,1.53-4.58,5v2.1h-2.97v3.16h2.97v7.66C7.98,24.98,4,20.47,4,15C4,8.91,8.91,4,15,4z"
	/>
</svg>
