<?xml version="1.0" encoding="utf-8"?>
<!-- Generator: Adobe Illustrator 25.4.1, SVG Export Plug-In . SVG Version: 6.00 Build 0)  -->
<svg version="1.1" id="Layer_1" xmlns="http://www.w3.org/2000/svg" xmlns:xlink="http://www.w3.org/1999/xlink" x="0px" y="0px"
	 viewBox="0 0 32 32" style="enable-background:new 0 0 32 32;" xml:space="preserve">
<style type="text/css">
	.st0{fill:#FFFFFF;}
</style>
<path class="st0" d="M5.5,2C3.6,2,2,3.6,2,5.5v19C2,26.4,3.6,28,5.5,28h19c1.9,0,3.5-1.6,3.5-3.5v-19C28,3.6,26.4,2,24.5,2H5.5z
	 M5.5,4h19C25.3,4,26,4.7,26,5.5v19c0,0.8-0.7,1.5-1.5,1.5h-19C4.7,26,4,25.3,4,24.5v-19C4,4.7,4.7,4,5.5,4z M8,6C6.9,6,6,6.9,6,8
	s0.9,2,2,2s2-0.9,2-2S9.1,6,8,6z M6,12v12h4V12H6z M12,12v12h4v-5.4c0-1.7,0.2-3.2,2.2-3.2c2,0,1.8,1.8,1.8,3.3V24h4v-5.9
	c0-3.4-0.7-6.1-4.6-6.1c-1.9,0-2.8,0.8-3.3,1.8h0V12H12z"/>
</svg>
